<svg width="269" height="57" viewBox="0 0 269 57" fill="none" xmlns="http://www.w3.org/2000/svg">
<mask id="mask0_191_569" style="mask-type:luminance" maskUnits="userSpaceOnUse" x="0" y="32" width="63" height="21">
<path d="M20.3376 52.9477C19.4492 52.9472 18.562 52.8833 17.6827 52.7565L0.531494 50.2502L1.49791 43.6498L18.6491 46.1561C20.8899 46.4819 23.177 46.1524 25.2348 45.2073C27.2925 44.2623 29.0329 42.7421 30.246 40.8302C32.3471 37.4853 35.4742 34.9102 39.16 33.4899C42.8458 32.0695 46.8923 31.8802 50.6947 32.9501L50.7425 32.966L62.6845 36.4653L60.8101 42.8692L48.8946 39.3752C46.4738 38.6984 43.8992 38.8224 41.5546 39.7286C39.2101 40.6349 37.2214 42.2748 35.8852 44.4038C34.2206 47.02 31.9235 49.1743 29.206 50.6676C26.4885 52.161 23.4384 52.9451 20.3376 52.9477Z" fill="white"/>
</mask>
<g mask="url(#mask0_191_569)">
<path d="M39.873 23.9125H139.206V123.247H39.873V23.9125Z" fill="#BCBEC0"/>
</g>
<mask id="mask1_191_569" style="mask-type:luminance" maskUnits="userSpaceOnUse" x="0" y="32" width="63" height="21">
<path d="M20.3376 52.9477C19.4492 52.9472 18.562 52.8833 17.6827 52.7565L0.531494 50.2502L1.49791 43.6498L18.6491 46.1561C20.8899 46.4819 23.177 46.1524 25.2348 45.2073C27.2925 44.2623 29.0329 42.7421 30.246 40.8302C32.3471 37.4853 35.4742 34.9102 39.16 33.4899C42.8458 32.0695 46.8923 31.8802 50.6947 32.9501L50.7425 32.966L62.6845 36.4653L60.8101 42.8692L48.8946 39.3752C46.4738 38.6984 43.8992 38.8224 41.5546 39.7286C39.2101 40.6349 37.2214 42.2748 35.8852 44.4038C34.2206 47.02 31.9235 49.1743 29.206 50.6676C26.4885 52.161 23.4384 52.9451 20.3376 52.9477Z" fill="white"/>
</mask>
<g mask="url(#mask1_191_569)">
<path d="M-59.4658 23.9125H39.8676V123.247H-59.4658V23.9125Z" fill="#BCBEC0"/>
</g>
<path d="M20.3375 53.4786C19.4241 53.4776 18.5119 53.4102 17.6082 53.2768L0.457056 50.7704C0.317944 50.7491 0.192418 50.6749 0.106587 50.5634C0.0643831 50.5079 0.0337155 50.4446 0.0163884 50.3771C-0.000938818 50.3096 -0.00457085 50.2393 0.00570505 50.1704L0.972118 43.5701C0.981246 43.5009 1.00415 43.4343 1.03948 43.3742C1.07481 43.3141 1.12185 43.2618 1.17781 43.2202C1.23376 43.1786 1.2975 43.1486 1.36523 43.1321C1.43297 43.1156 1.50333 43.1128 1.57215 43.124L18.7233 45.6304C20.8622 45.9406 23.0451 45.626 25.0094 44.7245C26.9736 43.8229 28.6354 42.3727 29.7946 40.5486C31.9568 37.1065 35.1749 34.4566 38.9679 32.9951C42.761 31.5336 46.9251 31.3389 50.8379 32.4402C50.8379 32.4402 50.8857 32.4562 50.891 32.4562L62.8331 35.9555C62.9675 35.9976 63.0811 36.0886 63.1517 36.2104C63.186 36.2712 63.2075 36.3383 63.2148 36.4077C63.2221 36.4772 63.2151 36.5473 63.1942 36.6139L61.3198 43.0178C61.2796 43.1525 61.188 43.2659 61.0647 43.3335C60.9415 43.4011 60.7965 43.4174 60.6614 43.3789L48.7458 39.8849C46.4355 39.2412 43.9791 39.3606 41.7422 40.2256C39.5053 41.0905 37.6074 42.6546 36.3311 44.6852C34.628 47.3853 32.267 49.6086 29.4696 51.1467C26.6721 52.6847 23.5299 53.4871 20.3375 53.4786ZM1.13141 49.7987L17.7569 52.2307C18.6099 52.3533 19.4705 52.4154 20.3322 52.4166C23.3448 52.4255 26.3103 51.6685 28.9501 50.2167C31.5898 48.7649 33.8172 46.666 35.4231 44.117C36.8203 41.892 38.8991 40.178 41.3497 39.2307C43.8003 38.2833 46.4914 38.1533 49.0219 38.8601L60.4383 42.2054L62.0154 36.821L50.5831 33.4704C46.8856 32.4206 42.9475 32.5979 39.3593 33.9755C35.7711 35.3532 32.7262 37.857 30.6813 41.1115C29.4122 43.109 27.5926 44.697 25.4418 45.6843C23.2911 46.6716 20.9007 47.0162 18.5587 46.6764L1.93322 44.2444L1.13141 49.7987Z" fill="black"/>
<mask id="mask2_191_569" style="mask-type:luminance" maskUnits="userSpaceOnUse" x="207" y="31" width="62" height="23">
<path d="M249.128 53.1281C245.883 53.1266 242.697 52.2679 239.891 50.6389C237.085 49.0098 234.76 46.6683 233.15 43.8514C231.912 41.6591 229.997 39.9265 227.692 38.9129C225.387 37.8993 222.816 37.659 220.364 38.2281L209.128 40.676L207.71 34.1553L218.919 31.7127C222.764 30.8252 226.792 31.2051 230.403 32.7957C234.014 34.3863 237.014 37.1022 238.954 40.538C240.077 42.5036 241.745 44.1023 243.757 45.1415C245.768 46.1807 248.037 46.616 250.29 46.3949L267.543 44.6904L268.201 51.328L250.949 53.0325C250.344 53.0957 249.736 53.1276 249.128 53.1281Z" fill="white"/>
</mask>
<g mask="url(#mask2_191_569)">
<path d="M238.54 23.9125H337.873V123.247H238.54V23.9125Z" fill="#BCBEC0"/>
</g>
<mask id="mask3_191_569" style="mask-type:luminance" maskUnits="userSpaceOnUse" x="207" y="31" width="62" height="23">
<path d="M249.128 53.1281C245.883 53.1266 242.697 52.2679 239.891 50.6389C237.085 49.0098 234.76 46.6683 233.15 43.8514C231.912 41.6591 229.997 39.9265 227.692 38.9129C225.387 37.8993 222.816 37.659 220.364 38.2281L209.128 40.676L207.71 34.1553L218.919 31.7127C222.764 30.8252 226.792 31.2051 230.403 32.7957C234.014 34.3863 237.014 37.1022 238.954 40.538C240.077 42.5036 241.745 44.1023 243.757 45.1415C245.768 46.1807 248.037 46.616 250.29 46.3949L267.543 44.6904L268.201 51.328L250.949 53.0325C250.344 53.0957 249.736 53.1276 249.128 53.1281Z" fill="white"/>
</mask>
<g mask="url(#mask3_191_569)">
<path d="M139.206 23.9125H238.54V123.247H139.206V23.9125Z" fill="#BCBEC0"/>
</g>
<path d="M249.128 53.6593C245.79 53.6558 242.512 52.7711 239.625 51.0947C236.738 49.4182 234.345 47.0095 232.688 44.1118C231.505 42.0196 229.677 40.3662 227.477 39.3986C225.276 38.431 222.822 38.2012 220.481 38.7434L209.239 41.1913C209.102 41.2208 208.959 41.1949 208.84 41.1194C208.722 41.0438 208.638 40.9247 208.607 40.7877L207.19 34.267C207.174 34.1991 207.172 34.1286 207.185 34.0601C207.198 33.9915 207.225 33.9264 207.264 33.8688C207.341 33.7503 207.461 33.6665 207.599 33.6351L218.808 31.1925C222.763 30.2788 226.907 30.6695 230.622 32.3062C234.336 33.9428 237.421 36.7375 239.416 40.2727C240.489 42.1487 242.081 43.6746 244.001 44.6666C245.921 45.6587 248.087 46.0745 250.238 45.8641L267.49 44.1596C267.629 44.1454 267.768 44.187 267.876 44.2753C267.985 44.3637 268.054 44.4914 268.068 44.6306L268.068 44.6375L268.727 51.2751C268.735 51.3442 268.728 51.4142 268.708 51.4809C268.688 51.5475 268.655 51.6094 268.61 51.6627C268.52 51.7691 268.393 51.8374 268.254 51.8539L251.002 53.5584C250.38 53.6262 249.754 53.6599 249.128 53.6593ZM223.008 37.3946C225.165 37.3938 227.284 37.9667 229.146 39.0547C231.009 40.1428 232.548 41.7067 233.607 43.5861C235.171 46.3209 237.429 48.5942 240.154 50.1765C242.878 51.7587 245.972 52.5938 249.122 52.5973C249.707 52.5973 250.296 52.5654 250.88 52.5123L267.601 50.8556L267.049 45.2747L250.328 46.9314C247.972 47.1631 245.6 46.7084 243.497 45.622C241.394 44.5357 239.65 42.8641 238.476 40.809C236.594 37.4716 233.682 34.8332 230.176 33.2883C226.67 31.7434 222.758 31.3752 219.026 32.2386L208.331 34.5697L209.526 40.0496L220.247 37.7132C221.152 37.5006 222.078 37.3936 223.008 37.3946Z" fill="black"/>
<path d="M58.7974 35.6265L60.1249 42.0622C60.3087 42.949 60.8369 43.7266 61.5935 44.2244C62.3501 44.7222 63.2733 44.8994 64.1604 44.7172L73.9361 42.6994L71.228 29.5784L61.4523 31.5962C61.014 31.6856 60.5975 31.8605 60.2267 32.1108C59.8559 32.3612 59.5381 32.6821 59.2913 33.0553C59.0446 33.4285 58.8737 33.8467 58.7886 34.2859C58.7034 34.7251 58.7056 35.1768 58.795 35.6152L58.7974 35.6265Z" fill="#3FBDF1"/>
<path d="M63.465 45.3172C62.6969 45.3161 61.9459 45.091 61.3039 44.6694C60.8696 44.3858 60.4962 44.0186 60.2054 43.5892C59.9146 43.1598 59.7122 42.6768 59.61 42.1684L58.2825 35.7326C58.0716 34.7088 58.2759 33.6432 58.8504 32.7699C59.425 31.8967 60.3227 31.2873 61.3463 31.0757L71.122 29.0579C71.26 29.03 71.4034 29.0579 71.5208 29.1356C71.6383 29.2132 71.7202 29.3342 71.7485 29.4721L74.4566 42.5932C74.4834 42.7306 74.4568 42.873 74.3823 42.9914C74.3443 43.0496 74.2951 43.0997 74.2377 43.1389C74.1803 43.1781 74.1158 43.2056 74.0478 43.2198L64.2721 45.2376C64.0063 45.2901 63.736 45.3168 63.465 45.3172ZM70.814 30.1996L61.5587 32.1112C61.1879 32.1871 60.8357 32.3355 60.5223 32.5477C60.2089 32.76 59.9404 33.032 59.7323 33.3482C59.5241 33.6643 59.3804 34.0185 59.3093 34.3903C59.2382 34.7621 59.2411 35.1442 59.3179 35.5149L60.6454 41.9506C60.7214 42.3215 60.8697 42.6737 61.082 42.9871C61.2942 43.3005 61.5663 43.569 61.8824 43.7771C62.1986 43.9853 62.5527 44.129 62.9245 44.2001C63.2963 44.2712 63.6784 44.2683 64.0491 44.1915L73.3043 42.2799L70.814 30.1996Z" fill="black"/>
<path d="M210.657 34.0174L209.032 40.3841C208.808 41.2614 208.245 42.0139 207.466 42.4759C206.688 42.938 205.757 43.0718 204.88 42.8479L195.205 40.3788L198.524 27.3958L208.199 29.8649C208.633 29.976 209.041 30.1715 209.399 30.4404C209.758 30.7092 210.06 31.0461 210.288 31.4317C210.517 31.8173 210.667 32.2442 210.73 32.6878C210.793 33.1315 210.768 33.5833 210.657 34.0174Z" fill="#3FBDF1"/>
<path d="M199.267 34.5005C198.626 37.01 197.497 39.3686 195.944 41.4416C194.392 43.5147 192.446 45.2616 190.218 46.5826C187.991 47.9036 185.524 48.7728 182.961 49.1406C180.397 49.5084 177.786 49.3675 175.277 48.7261L159.156 44.6055L168.921 6.38391L185.042 10.5045C187.551 11.1458 189.91 12.2752 191.983 13.8283C194.057 15.3813 195.804 17.3276 197.125 19.5559C198.446 21.7842 199.315 24.2509 199.682 26.8151C200.05 29.3793 199.909 31.9909 199.267 34.5005Z" fill="#D3E4EC"/>
<path d="M180.194 49.8785C178.491 49.8767 176.794 49.6626 175.144 49.2413L159.028 45.1207C158.961 45.1037 158.897 45.0733 158.842 45.0313C158.786 44.9894 158.739 44.9367 158.705 44.8764C158.635 44.754 158.614 44.61 158.646 44.4729L168.411 6.25129C168.428 6.18343 168.459 6.11963 168.5 6.06359C168.542 6.00756 168.595 5.96039 168.655 5.92483C168.715 5.88927 168.782 5.86602 168.851 5.85643C168.921 5.84684 168.991 5.85111 169.059 5.86897L185.18 9.98954C189.957 11.2128 194.124 14.1365 196.9 18.2125C199.676 22.2885 200.87 27.2371 200.259 32.1305C199.647 37.0239 197.272 41.5263 193.578 44.7936C189.884 48.0609 185.125 49.8688 180.194 49.8785ZM159.804 44.2233L175.41 48.2112C177.852 48.8358 180.393 48.9732 182.888 48.6156C185.383 48.258 187.783 47.4123 189.951 46.1269C192.119 44.8416 194.013 43.1416 195.524 41.1242C197.035 39.1068 198.134 36.8115 198.758 34.3694C199.382 31.9272 199.518 29.3861 199.16 26.8911C198.802 24.3961 197.955 21.9962 196.669 19.8284C195.383 17.6606 193.683 15.7673 191.665 14.2568C189.647 12.7463 187.351 11.6482 184.909 11.025L169.303 7.03718L159.804 44.2233Z" fill="black"/>
<path d="M163.844 2.72012L152.943 45.3862C152.751 46.1352 152.865 46.9297 153.259 47.5949C153.653 48.26 154.296 48.7414 155.045 48.933L155.046 48.9333C155.795 49.1249 156.589 49.0112 157.254 48.617C157.92 48.2229 158.401 47.5807 158.593 46.8316L158.593 46.8305L169.494 4.16444C169.686 3.41541 169.572 2.62092 169.178 1.95576C168.784 1.29061 168.142 0.809244 167.393 0.617602L167.391 0.617343C166.642 0.425704 165.848 0.539477 165.183 0.933616C164.518 1.32775 164.036 1.96997 163.845 2.71901L163.844 2.72012Z" fill="#2E2E2E"/>
<path d="M155.763 49.5545C155.475 49.5529 155.188 49.5173 154.908 49.4483C154.023 49.2217 153.264 48.6532 152.798 47.8677C152.333 47.0821 152.197 46.1438 152.423 45.2587L163.324 2.59261C163.551 1.70722 164.12 0.948152 164.907 0.482102C165.693 0.0160511 166.632 -0.118877 167.518 0.106949C168.403 0.332774 169.163 0.90088 169.63 1.68652C170.098 2.47216 170.234 3.4111 170.009 4.29713L159.108 46.9632C158.916 47.7044 158.483 48.361 157.878 48.8299C157.272 49.2988 156.528 49.5537 155.763 49.5545ZM166.664 1.05803C166.238 1.05703 165.819 1.17273 165.453 1.39257C165.184 1.55195 164.948 1.763 164.761 2.01359C164.573 2.26418 164.437 2.54939 164.359 2.85283L153.458 45.5189C153.302 46.1315 153.395 46.7811 153.718 47.3249C154.041 47.8686 154.566 48.2619 155.179 48.4182C155.791 48.5745 156.441 48.4811 156.985 48.1584C157.528 47.8358 157.921 47.3104 158.078 46.6977L168.979 4.03165C169.069 3.67924 169.077 3.311 169.002 2.95506C168.928 2.59911 168.773 2.26491 168.55 1.97798C168.326 1.69104 168.04 1.45898 167.713 1.29954C167.387 1.14009 167.028 1.05749 166.664 1.05803Z" fill="black"/>
<path d="M177.406 6.18209L166.505 48.8482C166.313 49.5972 166.427 50.3917 166.821 51.0569C167.215 51.722 167.857 52.2034 168.606 52.395L168.608 52.3953C169.357 52.5869 170.151 52.4731 170.816 52.079C171.481 51.6849 171.963 51.0426 172.154 50.2936L172.155 50.2925L183.056 7.62641C183.248 6.87737 183.134 6.08289 182.74 5.41773C182.346 4.75258 181.703 4.27124 180.954 4.0796L180.953 4.07931C180.204 3.88865 179.41 4.00297 178.745 4.39719C178.08 4.7914 177.598 5.43332 177.406 6.18209Z" fill="#2E2E2E"/>
<path d="M169.324 53.0221C169.036 53.0204 168.749 52.9848 168.469 52.9158C167.584 52.6898 166.825 52.1214 166.359 51.3357C165.893 50.55 165.758 49.6114 165.984 48.7262L176.886 6.06014C177.112 5.17361 177.681 4.41316 178.467 3.94612C179.254 3.47908 180.194 3.34368 181.081 3.56972C181.967 3.79575 182.727 4.36471 183.194 5.15141C183.662 5.93812 183.797 6.87813 183.571 7.76466L172.67 50.4308C172.476 51.1715 172.043 51.8274 171.438 52.2962C170.833 52.765 170.09 53.0202 169.324 53.0221ZM180.226 4.52026C179.799 4.51926 179.38 4.63493 179.015 4.85477C178.745 5.01415 178.51 5.2252 178.322 5.47579C178.135 5.72639 177.998 6.01159 177.921 6.31503L167.02 48.9811C166.942 49.2846 166.925 49.6004 166.969 49.9104C167.014 50.2205 167.119 50.5188 167.278 50.7883C167.438 51.0577 167.649 51.293 167.9 51.4808C168.151 51.6685 168.436 51.8051 168.74 51.8825C169.043 51.9599 169.359 51.9768 169.669 51.9321C169.979 51.8875 170.277 51.7822 170.546 51.6222C170.816 51.4622 171.051 51.2507 171.238 50.9998C171.426 50.7489 171.562 50.4635 171.639 50.16L182.541 7.49385C182.63 7.14145 182.638 6.7732 182.564 6.41726C182.489 6.06132 182.335 5.72711 182.111 5.44018C181.888 5.15325 181.602 4.92121 181.275 4.76176C180.948 4.60232 180.589 4.51972 180.226 4.52026Z" fill="black"/>
<path d="M70.1555 36.6352C70.6795 39.1718 71.6979 41.5803 73.1527 43.7232C74.6075 45.8661 76.4701 47.7015 78.6343 49.1245C80.7984 50.5476 83.2216 51.5304 85.7656 52.0169C88.3095 52.5034 90.9244 52.4841 93.4609 51.96L109.752 48.5934L101.771 9.95764L85.48 13.3242C80.3572 14.3844 75.8652 17.4355 72.9915 21.8069C70.1178 26.1783 69.0977 31.5119 70.1555 36.6352Z" fill="#D3E4EC"/>
<path d="M89.468 52.9052C84.8099 52.8973 80.2963 51.287 76.685 48.3447C73.0736 45.4024 70.5845 41.3073 69.6353 36.7468C68.5504 31.4855 69.5995 26.0086 72.552 21.5207C75.5044 17.0327 80.1184 13.9011 85.3793 12.8145L101.67 9.44795C101.808 9.42002 101.952 9.44795 102.069 9.52559C102.187 9.60322 102.268 9.72423 102.297 9.86213L110.278 48.4926C110.304 48.63 110.278 48.7724 110.203 48.8909C110.165 48.949 110.116 48.9991 110.059 49.0383C110.001 49.0775 109.937 49.105 109.869 49.1192L93.5779 52.4857C92.2254 52.7626 90.8485 52.9032 89.468 52.9052ZM101.362 10.5896L85.5917 13.85C83.12 14.3564 80.7724 15.3452 78.6831 16.7597C76.5939 18.1743 74.804 19.9869 73.4159 22.0939C72.0279 24.2009 71.0688 26.5609 70.5937 29.0388C70.1185 31.5168 70.1366 34.0641 70.6468 36.5351C71.1571 39.0061 72.1495 41.3522 73.5673 43.4393C74.9851 45.5264 76.8005 47.3135 78.9096 48.6983C81.0187 50.0831 83.3801 51.0385 85.8588 51.5098C88.3374 51.9811 90.8847 51.9591 93.3549 51.445L109.125 48.1846L101.362 10.5896Z" fill="black"/>
<path d="M107.017 6.53814L115.927 49.6662C116.005 50.0414 116.007 50.4281 115.935 50.8043C115.863 51.1805 115.718 51.5389 115.507 51.8589C115.297 52.1789 115.025 52.4543 114.708 52.6694C114.391 52.8845 114.035 53.035 113.66 53.1124C113.285 53.1898 112.898 53.1925 112.522 53.1205C112.146 53.0484 111.787 52.903 111.467 52.6924C111.147 52.4819 110.872 52.2104 110.657 51.8934C110.442 51.5764 110.291 51.2202 110.214 50.845L101.304 7.71696C101.147 6.95938 101.298 6.17057 101.722 5.52402C102.147 4.87748 102.811 4.42618 103.569 4.2694C104.327 4.11262 105.115 4.26321 105.762 4.68804C106.408 5.11287 106.86 5.77712 107.016 6.53469L107.017 6.53814Z" fill="#2E2E2E"/>
<path d="M113.066 53.7018C112.274 53.6991 111.507 53.4243 110.895 52.9235C110.282 52.4227 109.859 51.7263 109.699 50.9512L100.789 7.82311C100.697 7.37979 100.693 6.92265 100.777 6.47783C100.862 6.03301 101.034 5.60922 101.282 5.2307C101.531 4.85217 101.851 4.52633 102.226 4.27179C102.6 4.01726 103.021 3.83902 103.464 3.74727C103.908 3.65552 104.365 3.65205 104.81 3.73707C105.254 3.82208 105.678 3.9939 106.056 4.24273C106.435 4.49156 106.76 4.8125 107.014 5.18721C107.269 5.56192 107.447 5.98305 107.538 6.42654L116.448 49.5546C116.54 49.9978 116.544 50.4548 116.459 50.8994C116.374 51.344 116.203 51.7676 115.954 52.1458C115.706 52.5241 115.385 52.8496 115.01 53.1039C114.636 53.3581 114.215 53.536 113.772 53.6274C113.54 53.6784 113.303 53.7033 113.066 53.7018ZM104.166 4.7433C103.812 4.74343 103.462 4.82237 103.142 4.97439C102.823 5.12641 102.541 5.34771 102.317 5.62223C102.093 5.89675 101.934 6.21762 101.849 6.56155C101.765 6.90549 101.758 7.26385 101.83 7.61069L110.74 50.7388C110.87 51.3574 111.24 51.8992 111.769 52.2453C112.298 52.5915 112.942 52.7136 113.561 52.5849C114.18 52.4562 114.722 52.0872 115.07 51.5589C115.417 51.0306 115.54 50.3862 115.413 49.767L106.502 6.63898C106.389 6.10337 106.095 5.62296 105.669 5.27796C105.244 4.93296 104.714 4.74426 104.166 4.7433Z" fill="black"/>
<path d="M93.3122 9.36814L102.222 52.4962C102.378 53.2536 102.226 54.0417 101.801 54.6875C101.376 55.3332 100.712 55.7837 99.9545 55.9399C99.1973 56.0962 98.409 55.9454 97.7629 55.5207C97.1168 55.096 96.6657 54.4321 96.5088 53.675L87.5987 10.547C87.4432 9.78959 87.5946 9.00144 88.0199 8.35571C88.4451 7.70997 89.1094 7.25951 89.8666 7.10327C90.6238 6.94704 91.4121 7.09784 92.0582 7.52253C92.7043 7.94722 93.1553 8.61104 93.3122 9.36814Z" fill="#2E2E2E"/>
<path d="M99.355 56.5318C98.5635 56.5291 97.7969 56.2543 97.184 55.7535C96.571 55.2527 96.1489 54.5563 95.9885 53.7812L87.0784 10.6531C86.9859 10.2097 86.9818 9.75241 87.0663 9.30739C87.1507 8.86237 87.3221 8.43836 87.5706 8.05963C87.819 7.68089 88.1397 7.35486 88.5143 7.10018C88.8889 6.84549 89.31 6.66718 89.7536 6.5754C90.1971 6.48361 90.6544 6.48017 91.0993 6.56528C91.5442 6.6504 91.968 6.82239 92.3463 7.07142C92.7247 7.32045 93.0502 7.64163 93.3044 8.01658C93.5585 8.39154 93.7362 8.81292 93.8273 9.25662L102.737 52.3847C102.921 53.2795 102.742 54.2104 102.24 54.9737C101.739 55.737 100.955 56.2705 100.061 56.4575C99.8294 56.5087 99.5924 56.5336 99.355 56.5318ZM90.4555 7.57334C90.2933 7.57371 90.1315 7.58971 89.9723 7.62111C89.3532 7.75034 88.8106 8.11963 88.4633 8.64812C88.1159 9.1766 87.9922 9.82121 88.1191 10.4407L97.0292 53.5688C97.0927 53.8756 97.216 54.1669 97.392 54.4261C97.568 54.6853 97.7934 54.9073 98.0552 55.0794C98.317 55.2514 98.6102 55.3703 98.918 55.4291C99.2257 55.4879 99.542 55.4855 99.8488 55.422C100.156 55.3586 100.447 55.2353 100.706 55.0592C100.965 54.8832 101.187 54.6578 101.359 54.396C101.531 54.1342 101.65 53.841 101.709 53.5333C101.768 53.2255 101.765 52.9092 101.702 52.6024L92.7919 9.47432C92.68 8.93731 92.3867 8.45518 91.9612 8.10898C91.5357 7.76279 91.004 7.57364 90.4555 7.57334Z" fill="black"/>
<mask id="mask4_191_569" style="mask-type:luminance" maskUnits="userSpaceOnUse" x="113" y="34" width="16" height="11">
<path d="M114.759 44.0163L113.331 37.092L124.519 34.7821C124.974 34.6873 125.443 34.6831 125.899 34.7698C126.356 34.8564 126.791 35.0322 127.179 35.2871C127.568 35.542 127.903 35.871 128.164 36.2552C128.425 36.6395 128.608 37.0715 128.702 37.5265C128.797 37.9815 128.8 38.4507 128.713 38.9071C128.626 39.3635 128.449 39.7982 128.194 40.1865C127.939 40.5747 127.609 40.9087 127.225 41.1696C126.84 41.4304 126.408 41.6128 125.953 41.7064L114.759 44.0163Z" fill="white"/>
</mask>
<g mask="url(#mask4_191_569)">
<path d="M39.873 23.9125H139.206V123.247H39.873V23.9125Z" fill="#BCBEC0"/>
</g>
<path d="M114.759 44.5472C114.637 44.546 114.519 44.5033 114.425 44.4261C114.33 44.3488 114.265 44.2417 114.239 44.1224L112.811 37.1981C112.784 37.0607 112.811 36.9183 112.885 36.7998C112.923 36.7417 112.972 36.6916 113.03 36.6524C113.087 36.6132 113.152 36.5857 113.22 36.5715L124.408 34.2616C124.931 34.1536 125.47 34.1496 125.994 34.2498C126.519 34.3501 127.019 34.5527 127.465 34.8461C127.911 35.1395 128.295 35.5179 128.595 35.9597C128.895 36.4015 129.105 36.8981 129.213 37.4211C129.321 37.9441 129.325 38.4833 129.225 39.0078C129.125 39.5324 128.922 40.032 128.629 40.4783C128.335 40.9245 127.957 41.3086 127.515 41.6086C127.073 41.9086 126.577 42.1186 126.054 42.2267L114.866 44.5366C114.831 44.543 114.795 44.5465 114.759 44.5472ZM113.958 37.5061L115.174 43.3896L125.841 41.1859C126.423 41.066 126.957 40.7761 127.374 40.353C127.792 39.9298 128.074 39.3924 128.186 38.8087C128.298 38.225 128.235 37.6212 128.003 37.0736C127.772 36.526 127.384 36.0593 126.887 35.7325C126.559 35.5145 126.19 35.3642 125.802 35.2904C125.415 35.2165 125.017 35.2206 124.631 35.3024L113.958 37.5061Z" fill="black"/>
<mask id="mask5_191_569" style="mask-type:luminance" maskUnits="userSpaceOnUse" x="108" y="9" width="16" height="11">
<path d="M108.185 12.1879L109.614 19.1121L120.802 16.8023C121.72 16.6129 122.526 16.0664 123.041 15.2831C123.557 14.4998 123.74 13.5438 123.55 12.6254C123.361 11.7071 122.815 10.9016 122.031 10.3861C121.248 9.87064 120.292 9.68744 119.374 9.87683L119.368 9.87799L108.185 12.1879Z" fill="white"/>
</mask>
<g mask="url(#mask5_191_569)">
<path d="M39.8728 -75.4224H139.206V23.9123H39.8728V-75.4224Z" fill="#BCBEC0"/>
</g>
<path d="M109.614 19.6431C109.51 19.6412 109.41 19.6119 109.322 19.5581C109.263 19.5201 109.213 19.471 109.174 19.4136C109.135 19.3562 109.107 19.2916 109.093 19.2236L107.665 12.2993C107.637 12.1614 107.665 12.0179 107.742 11.9005C107.82 11.783 107.941 11.7011 108.079 11.6728L119.267 9.36289C120.055 9.20031 120.873 9.27493 121.619 9.57734C122.364 9.87975 123.003 10.3964 123.455 11.0619C123.907 11.7274 124.151 12.5119 124.157 13.3163C124.163 14.1207 123.93 14.9087 123.489 15.5809C123.197 16.0284 122.819 16.4132 122.376 16.7131C121.934 17.0131 121.437 17.2221 120.913 17.328L109.725 19.6378C109.688 19.6378 109.651 19.6431 109.614 19.6431ZM108.812 12.5967L110.028 18.4802L120.695 16.2765C121.476 16.1153 122.161 15.6504 122.599 14.9842C123.038 14.318 123.193 13.505 123.032 12.7241C122.871 11.9432 122.406 11.2584 121.74 10.8202C121.073 10.382 120.26 10.2265 119.48 10.3877L108.812 12.5967Z" fill="black"/>
</svg>
